<svg xmlns="http://www.w3.org/2000/svg" width="400" height="400" viewBox="0 0 400 400" version="1.1"><path d="M 182 33.090 C 153.848 36.710, 125.985 47.537, 103 63.784 C 90.856 72.369, 72.415 90.800, 63.763 103 C 31.777 148.101, 23.493 205.952, 41.557 258.069 C 46.188 271.430, 55.239 288.912, 63.784 301 C 72.369 313.144, 90.800 331.585, 103 340.237 C 148.101 372.223, 205.952 380.507, 258.069 362.443 C 271.430 357.812, 288.912 348.761, 301 340.216 C 313.144 331.631, 331.585 313.200, 340.237 301 C 372.223 255.899, 380.507 198.048, 362.443 145.931 C 357.812 132.570, 348.761 115.088, 340.216 103 C 331.631 90.856, 313.200 72.415, 301 63.763 C 282.874 50.907, 257.774 39.877, 237 35.637 C 219.557 32.076, 197.736 31.066, 182 33.090 M 188 64.695 C 137.738 70.078, 93.678 102.978, 74.479 149.463 C 61.935 179.833, 60.850 217.080, 71.629 247.234 C 95.067 312.802, 162.096 350.838, 229.866 337.027 C 295.958 323.559, 343.265 262.533, 339.680 195.368 C 337.160 148.145, 312.159 107.106, 270.996 82.620 C 247.587 68.696, 215.451 61.755, 188 64.695 M 152.500 129.402 C 139.791 133.432, 129.404 143.123, 122.497 157.395 C 112.350 178.362, 109.842 200.971, 114.997 225 C 117.511 236.719, 120.294 243.668, 125.894 252.207 C 135.075 266.209, 144.131 272.661, 157.847 274.974 C 162.300 275.724, 180.066 275.997, 211.575 275.798 L 258.649 275.500 262.797 272.754 C 269.520 268.303, 271.797 262.046, 269.504 254.324 C 267.851 248.760, 265.189 245.812, 259.768 243.548 C 256.617 242.231, 249.529 241.999, 212.282 241.994 C 183.913 241.991, 167.125 241.607, 164.595 240.905 C 159.001 239.351, 150.840 231.264, 147.614 224.075 C 138.439 203.630, 144.455 174.342, 159.788 164.808 C 163.497 162.502, 163.535 162.500, 211.075 162 L 258.650 161.500 262.913 158.677 C 265.755 156.796, 267.841 154.352, 269.170 151.350 C 270.926 147.379, 271.023 146.263, 269.984 141.934 C 268.500 135.746, 265.772 132.255, 260.579 129.896 C 256.778 128.170, 253.093 128.047, 206.500 128.089 C 168.989 128.123, 155.501 128.451, 152.500 129.402" stroke="none" fill="#8bfae2" fill-rule="evenodd"/><path d="M 174.536 1.084 C 129.255 7.288, 85.501 29.460, 55.046 61.633 C 28.517 89.659, 11.717 122.132, 3.333 161.590 C 0.779 173.610, 0.587 176.189, 0.545 199 C 0.515 215.121, 0.954 226.065, 1.827 231 C 16.939 316.399, 77.633 379.227, 162 396.806 C 173.558 399.214, 176.422 399.411, 200 399.423 C 224.088 399.435, 226.220 399.283, 238.500 396.668 C 320.240 379.261, 380.141 319.389, 396.462 238.784 C 397.858 231.890, 399 224.644, 399 222.683 C 399 220.722, 399.450 218.840, 400 218.500 C 400.610 218.123, 401 210.470, 401 198.882 C 401 186.470, 400.653 180.096, 400 180.500 C 399.402 180.869, 399 179.636, 399 177.435 C 399 175.409, 397.852 168.070, 396.450 161.126 C 382.065 89.916, 331.044 32.037, 263.164 9.924 C 240.906 2.674, 229.784 0.900, 204 0.489 C 191.625 0.291, 178.366 0.559, 174.536 1.084 M 182 33.090 C 153.848 36.710, 125.985 47.537, 103 63.784 C 90.856 72.369, 72.415 90.800, 63.763 103 C 31.777 148.101, 23.493 205.952, 41.557 258.069 C 46.188 271.430, 55.239 288.912, 63.784 301 C 72.369 313.144, 90.800 331.585, 103 340.237 C 148.101 372.223, 205.952 380.507, 258.069 362.443 C 271.430 357.812, 288.912 348.761, 301 340.216 C 313.144 331.631, 331.585 313.200, 340.237 301 C 372.223 255.899, 380.507 198.048, 362.443 145.931 C 357.812 132.570, 348.761 115.088, 340.216 103 C 331.631 90.856, 313.200 72.415, 301 63.763 C 282.874 50.907, 257.774 39.877, 237 35.637 C 219.557 32.076, 197.736 31.066, 182 33.090 M 188 64.695 C 137.738 70.078, 93.678 102.978, 74.479 149.463 C 61.935 179.833, 60.850 217.080, 71.629 247.234 C 95.067 312.802, 162.096 350.838, 229.866 337.027 C 295.958 323.559, 343.265 262.533, 339.680 195.368 C 337.160 148.145, 312.159 107.106, 270.996 82.620 C 247.587 68.696, 215.451 61.755, 188 64.695 M 152.500 129.402 C 139.791 133.432, 129.404 143.123, 122.497 157.395 C 112.350 178.362, 109.842 200.971, 114.997 225 C 117.511 236.719, 120.294 243.668, 125.894 252.207 C 135.075 266.209, 144.131 272.661, 157.847 274.974 C 162.300 275.724, 180.066 275.997, 211.575 275.798 L 258.649 275.500 262.797 272.754 C 269.520 268.303, 271.797 262.046, 269.504 254.324 C 267.851 248.760, 265.189 245.812, 259.768 243.548 C 256.617 242.231, 249.529 241.999, 212.282 241.994 C 183.913 241.991, 167.125 241.607, 164.595 240.905 C 159.001 239.351, 150.840 231.264, 147.614 224.075 C 138.439 203.630, 144.455 174.342, 159.788 164.808 C 163.497 162.502, 163.535 162.500, 211.075 162 L 258.650 161.500 262.913 158.677 C 265.755 156.796, 267.841 154.352, 269.170 151.350 C 270.926 147.379, 271.023 146.263, 269.984 141.934 C 268.500 135.746, 265.772 132.255, 260.579 129.896 C 256.778 128.170, 253.093 128.047, 206.500 128.089 C 168.989 128.123, 155.501 128.451, 152.500 129.402 M 0.419 200 C 0.419 210.725, 0.566 215.113, 0.746 209.750 C 0.925 204.387, 0.925 195.613, 0.746 190.250 C 0.566 184.887, 0.419 189.275, 0.419 200" stroke="none" fill="#242c34" fill-rule="evenodd"/></svg>