<svg width="15" height="15" viewBox="0 0 15 15" fill="none" xmlns="http://www.w3.org/2000/svg">
<circle cx="7.5" cy="6.5" r="6" stroke="#AFB1B3"/>
<path d="M6.25609 4.63281C5.95921 4.64844 5.70921 4.76172 5.50609 4.97266C5.31078 5.18359 5.17015 5.42578 5.08421 5.69922C4.99828 5.96484 4.95531 6.23828 4.95531 6.51953C4.95531 6.80078 4.99437 7.07812 5.0725 7.35156C5.15843 7.625 5.30296 7.86719 5.50609 8.07812C5.70921 8.28125 5.95921 8.39062 6.25609 8.40625H10.1233C10.6155 8.45312 10.885 8.72266 10.9319 9.21484C10.9241 9.43359 10.842 9.61719 10.6858 9.76562C10.5295 9.90625 10.342 9.97656 10.1233 9.97656H6.385H5.84593C5.29906 9.94531 4.84984 9.73828 4.49828 9.35547C4.14671 8.96484 3.89281 8.52344 3.73656 8.03125C3.58812 7.53906 3.5139 7.03516 3.5139 6.51953C3.5139 6.13672 3.55687 5.75781 3.64281 5.38281C3.72875 5.00781 3.86156 4.65234 4.04125 4.31641C4.22875 3.97266 4.47484 3.67969 4.77953 3.4375C5.09203 3.19531 5.4475 3.07031 5.84593 3.0625H6.06859H10.1233C10.6155 3.10938 10.885 3.37891 10.9319 3.87109C10.9319 4.08984 10.8498 4.27344 10.6858 4.42188C10.5295 4.5625 10.342 4.63281 10.1233 4.63281H6.25609Z" fill="#AFB1B3"/>
</svg>
